<svg xmlns:xlink="http://www.w3.org/1999/xlink" xmlns="http://www.w3.org/2000/svg" fill="none" viewBox="0 0 24 24" class="mr-1 h-6 w-6 cz-color-0" aria-hidden="true" width="24"  height="24" ><path fill="currentColor" fill-rule="evenodd" d="M6.75 9.003c.41 0 .75-.34.75-.75V4.5H19v16H7.5v-3.75c0-.41-.34-.75-.75-.75s-.75.34-.75.75v4.5c0 .41.34.75.75.75h13c.41 0 .75-.34.75-.75V3.75c0-.41-.34-.75-.75-.75h-13c-.41 0-.75.34-.75.75v4.503c0 .41.34.75.75.75Z" clip-rule="evenodd" class="cz-color-0"></path><path fill="currentColor" fill-rule="evenodd" d="m16.52 11.823-3.81-3.71a.754.754 0 0 0-1.06.01c-.29.3-.28.77.01 1.06l2.59 2.53H3.75c-.41 0-.75.34-.75.75s.34.75.75.75h10.37l-2.37 2.43c-.29.3-.28.77.01 1.06.3.29.77.28 1.06-.01l3.71-3.81c.29-.3.28-.77-.01-1.06Z" clip-rule="evenodd" class="cz-color-0"></path></svg>